<svg width="90" height="21" viewBox="0 0 90 21" fill="none" xmlns="http://www.w3.org/2000/svg">
<path d="M12.74 14.9C12.5267 15.0467 12.2067 15.2267 11.78 15.44C11.3667 15.64 10.8733 15.8133 10.3 15.96C9.74 16.1067 9.12 16.1733 8.44 16.16C7.30667 16.1467 6.28667 15.9467 5.38 15.56C4.48667 15.1733 3.72667 14.6467 3.1 13.98C2.47333 13.3 1.98667 12.5267 1.64 11.66C1.30667 10.78 1.14 9.84667 1.14 8.86C1.14 7.76667 1.31333 6.76667 1.66 5.86C2.00667 4.94 2.5 4.14 3.14 3.46C3.79333 2.78 4.55333 2.25333 5.42 1.88C6.3 1.50667 7.26 1.32 8.3 1.32C9.19333 1.32 10 1.44 10.72 1.68C11.44 1.92 12.0467 2.2 12.54 2.52L11.7 4.52C11.3133 4.25333 10.8333 4 10.26 3.76C9.7 3.50667 9.07333 3.38 8.38 3.38C7.7 3.38 7.05333 3.52 6.44 3.8C5.84 4.06667 5.30667 4.44667 4.84 4.94C4.38667 5.42 4.02667 5.98667 3.76 6.64C3.49333 7.28 3.36 7.98 3.36 8.74C3.36 9.51333 3.48 10.2267 3.72 10.88C3.96 11.5333 4.3 12.1 4.74 12.58C5.19333 13.06 5.73333 13.4333 6.36 13.7C6.98667 13.9667 7.69333 14.1 8.48 14.1C9.22667 14.1 9.88 13.9867 10.44 13.76C11.0133 13.5333 11.48 13.2733 11.84 12.98L12.74 14.9ZM15.4863 0.46H17.5463V16H15.4863V0.46ZM24.1816 16.2C23.3949 16.2 22.6816 16.04 22.0416 15.72C21.4016 15.3867 20.8949 14.8933 20.5216 14.24C20.1482 13.5867 19.9616 12.78 19.9616 11.82C19.9616 10.8733 20.1549 10.06 20.5416 9.38C20.9416 8.7 21.4616 8.18 22.1016 7.82C22.7549 7.44667 23.4616 7.26 24.2216 7.26C25.0216 7.26 25.6749 7.43333 26.1816 7.78C26.7016 8.11333 27.1082 8.50667 27.4016 8.96L27.2616 9.28L27.4616 7.62H29.3616V16H27.3016V13.9L27.5216 14.4C27.4682 14.5067 27.3549 14.66 27.1816 14.86C27.0082 15.0467 26.7749 15.2467 26.4816 15.46C26.2016 15.6733 25.8682 15.8533 25.4816 16C25.1082 16.1333 24.6749 16.2 24.1816 16.2ZM24.7416 14.52C25.1816 14.52 25.5749 14.44 25.9216 14.28C26.2682 14.12 26.5616 13.8933 26.8016 13.6C27.0416 13.3067 27.2082 12.96 27.3016 12.56V10.82C27.1949 10.4467 27.0149 10.1267 26.7616 9.86C26.5082 9.58 26.2016 9.36 25.8416 9.2C25.4949 9.04 25.1082 8.96 24.6816 8.96C24.2016 8.96 23.7616 9.08 23.3616 9.32C22.9616 9.54667 22.6416 9.86667 22.4016 10.28C22.1616 10.6933 22.0416 11.1733 22.0416 11.72C22.0416 12.24 22.1616 12.7133 22.4016 13.14C22.6549 13.5667 22.9882 13.9067 23.4016 14.16C23.8149 14.4 24.2616 14.52 24.7416 14.52ZM34.3575 7.62L34.5575 10.02L34.4575 9.7C34.6842 9.19333 35.0042 8.76 35.4175 8.4C35.8308 8.04 36.2575 7.76667 36.6975 7.58C37.1508 7.38 37.5308 7.28 37.8375 7.28L37.7375 9.32C37.0975 9.28 36.5375 9.4 36.0575 9.68C35.5908 9.96 35.2242 10.3333 34.9575 10.8C34.6908 11.2667 34.5575 11.7667 34.5575 12.3V16H32.5175V7.62H34.3575ZM40.1738 7.62H42.2338V16H40.1738V7.62ZM40.0538 4.62C40.0538 4.3 40.1804 4.03333 40.4338 3.82C40.6871 3.60667 40.9604 3.5 41.2538 3.5C41.5604 3.5 41.8338 3.60667 42.0738 3.82C42.3138 4.03333 42.4338 4.3 42.4338 4.62C42.4338 4.94 42.3138 5.20667 42.0738 5.42C41.8338 5.62 41.5604 5.72 41.2538 5.72C40.9604 5.72 40.6871 5.62 40.4338 5.42C40.1804 5.20667 40.0538 4.94 40.0538 4.62ZM46.1691 3.94H48.2291V7.64H50.4691V9.26H48.2291V16H46.1691V9.26H44.6891V7.64H46.1691V3.94ZM53.3933 20.02L58.9333 7.62H60.8133L55.4133 20.02H53.3933ZM55.5133 16.06L51.4533 7.62H53.7733L57.0933 15.02L55.5133 16.06Z" fill="black"/>
<path d="M71.1333 3H74.3333M78.6 3H88.2M69 8.33333H80.7333M85 8.33333H86.0667M71.1333 13.6667H76.4667M80.7333 13.6667H88.2M69 19H78.6M82.8667 19H86.0667" stroke="black" stroke-width="2" stroke-linecap="round" stroke-linejoin="round"/>
<path d="M71.1333 3H74.3333M78.6 3H88.2M85 8.33333H86.0667M71.1333 13.6667H76.4667M69 19H78.6M82.8667 19H86.0667" stroke="#979797" stroke-width="2" stroke-linecap="round" stroke-linejoin="round"/>
</svg>
