<?xml version="1.0" encoding="UTF-8" standalone="no"?>
<!DOCTYPE svg PUBLIC "-//W3C//DTD SVG 1.1//EN" "http://www.w3.org/Graphics/SVG/1.1/DTD/svg11.dtd">
<svg width="100%" height="100%" viewBox="0 0 90 21" version="1.1" xmlns="http://www.w3.org/2000/svg" xmlns:xlink="http://www.w3.org/1999/xlink" xml:space="preserve" xmlns:serif="http://www.serif.com/" style="fill-rule:evenodd;clip-rule:evenodd;stroke-linecap:round;stroke-linejoin:round;">
    <path d="M12.74,14.9C12.527,15.047 12.207,15.227 11.78,15.44C11.367,15.64 10.873,15.813 10.3,15.96C9.74,16.107 9.12,16.173 8.44,16.16C7.307,16.147 6.287,15.947 5.38,15.56C4.487,15.173 3.727,14.647 3.1,13.98C2.473,13.3 1.987,12.527 1.64,11.66C1.307,10.78 1.14,9.847 1.14,8.86C1.14,7.767 1.313,6.767 1.66,5.86C2.007,4.94 2.5,4.14 3.14,3.46C3.793,2.78 4.553,2.253 5.42,1.88C6.3,1.507 7.26,1.32 8.3,1.32C9.193,1.32 10,1.44 10.72,1.68C11.44,1.92 12.047,2.2 12.54,2.52L11.7,4.52C11.313,4.253 10.833,4 10.26,3.76C9.7,3.507 9.073,3.38 8.38,3.38C7.7,3.38 7.053,3.52 6.44,3.8C5.84,4.067 5.307,4.447 4.84,4.94C4.387,5.42 4.027,5.987 3.76,6.64C3.493,7.28 3.36,7.98 3.36,8.74C3.36,9.513 3.48,10.227 3.72,10.88C3.96,11.533 4.3,12.1 4.74,12.58C5.193,13.06 5.733,13.433 6.36,13.7C6.987,13.967 7.693,14.1 8.48,14.1C9.227,14.1 9.88,13.987 10.44,13.76C11.013,13.533 11.48,13.273 11.84,12.98L12.74,14.9ZM15.486,0.46L17.546,0.46L17.546,16L15.486,16L15.486,0.46ZM24.182,16.2C23.395,16.2 22.682,16.04 22.042,15.72C21.402,15.387 20.895,14.893 20.522,14.24C20.148,13.587 19.962,12.78 19.962,11.82C19.962,10.873 20.155,10.06 20.542,9.38C20.942,8.7 21.462,8.18 22.102,7.82C22.755,7.447 23.462,7.26 24.222,7.26C25.022,7.26 25.675,7.433 26.182,7.78C26.702,8.113 27.108,8.507 27.402,8.96L27.262,9.28L27.462,7.62L29.362,7.62L29.362,16L27.302,16L27.302,13.9L27.522,14.4C27.468,14.507 27.355,14.66 27.182,14.86C27.008,15.047 26.775,15.247 26.482,15.46C26.202,15.673 25.868,15.853 25.482,16C25.108,16.133 24.675,16.2 24.182,16.2ZM24.742,14.52C25.182,14.52 25.575,14.44 25.922,14.28C26.268,14.12 26.562,13.893 26.802,13.6C27.042,13.307 27.208,12.96 27.302,12.56L27.302,10.82C27.195,10.447 27.015,10.127 26.762,9.86C26.508,9.58 26.202,9.36 25.842,9.2C25.495,9.04 25.108,8.96 24.682,8.96C24.202,8.96 23.762,9.08 23.362,9.32C22.962,9.547 22.642,9.867 22.402,10.28C22.162,10.693 22.042,11.173 22.042,11.72C22.042,12.24 22.162,12.713 22.402,13.14C22.655,13.567 22.988,13.907 23.402,14.16C23.815,14.4 24.262,14.52 24.742,14.52ZM34.358,7.62L34.558,10.02L34.458,9.7C34.684,9.193 35.004,8.76 35.417,8.4C35.831,8.04 36.258,7.767 36.698,7.58C37.151,7.38 37.531,7.28 37.838,7.28L37.738,9.32C37.097,9.28 36.538,9.4 36.058,9.68C35.591,9.96 35.224,10.333 34.958,10.8C34.691,11.267 34.558,11.767 34.558,12.3L34.558,16L32.517,16L32.517,7.62L34.358,7.62ZM40.174,7.62L42.234,7.62L42.234,16L40.174,16L40.174,7.62ZM40.054,4.62C40.054,4.3 40.18,4.033 40.434,3.82C40.687,3.607 40.96,3.5 41.254,3.5C41.56,3.5 41.834,3.607 42.074,3.82C42.314,4.033 42.434,4.3 42.434,4.62C42.434,4.94 42.314,5.207 42.074,5.42C41.834,5.62 41.56,5.72 41.254,5.72C40.96,5.72 40.687,5.62 40.434,5.42C40.18,5.207 40.054,4.94 40.054,4.62ZM46.169,3.94L48.229,3.94L48.229,7.64L50.469,7.64L50.469,9.26L48.229,9.26L48.229,16L46.169,16L46.169,9.26L44.689,9.26L44.689,7.64L46.169,7.64L46.169,3.94ZM53.393,20.02L58.933,7.62L60.813,7.62L55.413,20.02L53.393,20.02ZM55.513,16.06L51.453,7.62L53.773,7.62L57.093,15.02L55.513,16.06Z" style="fill:white;fill-rule:nonzero;"/>
    <path d="M71.133,3L74.333,3M78.6,3L88.2,3M69,8.333L80.733,8.333M85,8.333L86.067,8.333M71.133,13.667L76.467,13.667M80.733,13.667L88.2,13.667M69,19L78.6,19M82.867,19L86.067,19" style="fill:none;fill-rule:nonzero;stroke:white;stroke-width:2px;"/>
    <path d="M71.133,3L74.333,3M78.6,3L88.2,3M85,8.333L86.067,8.333M71.133,13.667L76.467,13.667M69,19L78.6,19M82.867,19L86.067,19" style="fill:white;fill-rule:nonzero;stroke:rgb(196,196,196);stroke-width:2px;"/>
</svg>
